<?xml version="1.0" encoding="UTF-8" ?>
<!DOCTYPE svg PUBLIC "-//W3C//DTD SVG 1.1//EN" "http://www.w3.org/Graphics/SVG/1.1/DTD/svg11.dtd">
<svg width="1378pt" height="387pt" viewBox="0 0 1378 387" version="1.1" xmlns="http://www.w3.org/2000/svg">
<g id="#e8e9ecff">
</g>
<g id="#040303ff">
<path fill="#040303" opacity="1.00" d=" M 425.26 62.03 C 424.73 54.55 431.42 47.19 439.03 47.59 C 458.01 47.63 477.00 47.72 495.98 47.50 C 503.21 47.28 511.24 53.20 510.65 60.96 C 510.56 80.30 510.69 99.64 510.60 118.98 C 510.79 124.70 505.97 129.34 501.03 131.39 C 493.69 134.86 483.55 129.39 483.14 121.09 C 482.21 112.42 483.34 103.65 482.43 94.97 C 478.04 98.67 474.13 102.90 469.86 106.73 C 463.35 112.58 457.57 119.16 451.27 125.23 C 442.35 133.98 433.21 142.53 424.78 151.78 C 409.98 166.27 395.06 180.64 380.82 195.69 C 375.75 200.66 370.74 205.70 365.96 210.96 C 355.68 222.02 344.53 232.23 334.13 243.17 C 331.75 245.57 329.39 248.22 326.14 249.41 C 320.68 251.69 313.85 249.34 310.65 244.44 C 308.65 241.33 308.35 237.47 308.83 233.89 C 309.52 230.72 311.81 228.26 314.07 226.07 C 321.67 218.67 328.85 210.85 336.42 203.42 C 348.31 191.63 359.65 179.33 371.39 167.40 C 382.91 155.93 393.96 143.98 405.81 132.84 C 415.39 123.42 424.89 113.93 434.28 104.33 C 444.34 94.68 453.90 84.54 463.83 74.76 C 455.23 74.32 446.61 74.80 438.01 74.57 C 431.41 74.65 425.10 68.73 425.26 62.03 Z" />
<path fill="#040303" opacity="1.00" d=" M 262.33 174.40 C 283.74 158.64 312.94 154.02 338.09 162.72 C 335.63 165.70 332.58 168.08 329.69 170.61 C 324.45 175.20 320.46 180.96 315.92 186.19 C 312.92 186.23 309.93 186.20 306.95 186.26 C 293.29 186.27 280.46 193.51 271.45 203.44 C 261.11 214.12 256.61 229.30 256.78 243.92 C 257.68 259.18 263.78 274.42 274.89 285.10 C 277.37 287.60 279.89 290.09 282.86 292.01 C 298.40 302.29 318.68 305.65 336.45 299.57 C 343.17 297.17 349.49 293.59 355.01 289.05 C 361.26 283.47 367.23 277.25 370.78 269.54 C 375.71 260.17 377.84 249.56 377.64 239.02 C 385.43 231.71 393.08 224.22 400.55 216.57 C 406.13 229.76 406.33 244.61 403.81 258.52 C 399.98 276.80 390.44 294.10 376.20 306.30 C 362.88 318.88 345.13 326.28 327.08 328.54 C 302.41 331.39 276.56 323.65 257.96 307.08 C 247.85 298.15 240.25 286.62 235.15 274.19 C 228.55 256.53 227.31 236.82 232.16 218.56 C 236.28 200.70 247.95 185.38 262.33 174.40 Z" />
<path fill="#040303" opacity="1.00" d=" M 108.45 163.22 C 126.63 157.60 146.81 158.16 164.36 165.71 C 174.25 170.16 183.77 175.77 191.52 183.45 C 200.78 191.85 207.55 202.80 211.68 214.54 C 202.01 215.13 192.26 213.99 182.61 215.23 C 173.93 201.13 159.52 190.16 142.98 187.47 C 132.61 185.56 121.70 186.83 112.03 191.02 C 95.41 198.61 83.41 214.90 80.02 232.74 C 77.58 246.87 80.23 261.86 87.69 274.15 C 94.26 285.19 104.60 293.92 116.53 298.69 C 125.90 302.57 136.39 302.62 146.27 301.05 C 158.56 298.05 170.29 291.15 177.51 280.57 C 178.97 278.65 180.06 276.35 182.01 274.87 C 191.97 274.31 201.96 274.55 211.93 274.52 C 211.07 276.94 210.09 279.32 208.82 281.55 C 205.36 287.67 201.83 293.86 197.02 299.03 C 193.98 302.31 190.88 305.54 187.56 308.54 C 172.70 321.66 152.89 329.30 133.00 328.62 C 112.52 328.15 91.98 320.17 77.49 305.48 C 63.09 291.73 54.17 272.71 51.78 253.02 C 50.69 240.25 51.47 227.18 55.69 214.99 C 58.88 205.60 64.15 197.06 70.14 189.21 C 79.77 176.79 93.59 168.05 108.45 163.22 Z" />
<path fill="#040303" opacity="1.00" d=" M 458.63 163.28 C 460.75 163.30 462.91 162.62 465.00 163.03 C 466.52 164.21 467.63 165.82 468.78 167.35 C 478.43 180.85 486.98 195.09 495.99 209.02 C 509.82 231.97 524.34 254.51 538.37 277.35 C 539.08 272.26 538.78 267.11 539.22 262.00 C 539.25 238.67 539.20 215.33 539.17 192.00 C 538.62 182.61 538.90 173.20 538.85 163.80 C 548.05 163.70 557.24 163.83 566.44 163.62 C 566.77 207.08 566.16 250.55 566.42 294.01 C 566.48 303.44 566.34 312.88 566.42 322.31 C 555.86 321.49 545.24 321.51 534.69 322.46 C 521.35 301.66 508.75 280.39 495.12 259.77 C 486.31 245.32 477.49 230.86 468.01 216.84 C 465.20 212.98 462.85 208.78 459.65 205.23 C 459.85 208.49 460.32 211.73 460.30 215.01 C 460.30 251.05 460.03 287.09 460.68 323.13 C 451.55 323.36 442.43 322.47 433.29 322.81 C 433.35 275.24 433.37 227.67 433.35 180.10 C 433.46 174.56 432.72 169.05 432.78 163.51 C 441.40 163.41 450.02 163.44 458.63 163.28 Z" />
<path fill="#040303" opacity="1.00" d=" M 1077.62 164.29 C 1081.09 164.30 1084.55 163.86 1088.03 163.84 C 1105.28 163.79 1122.54 163.81 1139.80 163.80 C 1139.76 172.41 1139.74 181.02 1139.75 189.64 C 1123.40 189.59 1107.05 189.67 1090.70 189.60 C 1090.57 233.97 1090.55 278.35 1090.62 322.72 C 1081.51 322.56 1072.43 323.61 1063.34 323.08 C 1063.43 278.61 1063.41 234.14 1063.31 189.67 C 1047.96 189.55 1032.60 189.61 1017.25 189.52 C 1017.38 181.12 1017.40 172.71 1017.24 164.31 C 1037.37 164.37 1057.49 164.31 1077.62 164.29 Z" />
<path fill="#040303" opacity="1.00" d=" M 582.64 163.69 C 593.09 163.79 603.55 163.41 614.00 163.57 C 618.82 176.34 623.00 189.33 627.59 202.18 C 634.05 221.57 641.03 240.78 647.16 260.27 C 649.88 268.97 653.59 277.34 656.03 286.13 C 663.97 268.47 669.52 249.87 676.28 231.75 C 684.03 209.04 691.72 186.31 699.66 163.67 C 710.13 163.94 720.60 163.54 731.07 163.62 C 729.40 169.52 726.64 175.04 724.64 180.83 C 708.32 223.06 692.86 265.62 677.56 308.24 C 676.03 312.63 674.14 316.90 672.89 321.39 C 661.96 321.56 651.02 321.52 640.09 321.31 C 636.81 312.59 633.40 303.91 630.59 295.01 C 623.71 276.25 617.02 257.41 610.23 238.61 C 605.48 225.09 599.99 211.85 595.31 198.30 C 591.26 186.70 586.61 175.32 582.64 163.69 Z" />
<path fill="#040303" opacity="1.00" d=" M 745.51 163.78 C 782.58 163.81 819.66 163.72 856.73 163.81 C 856.70 172.31 856.74 180.81 856.81 189.31 C 828.96 190.06 801.09 189.30 773.24 189.59 C 773.32 203.26 773.13 216.93 773.49 230.59 C 795.64 230.11 817.81 230.52 839.97 230.24 C 843.09 230.13 846.20 229.77 849.32 229.69 C 849.40 238.53 849.44 247.36 849.40 256.20 C 837.92 256.43 826.47 255.64 814.99 255.73 C 803.99 255.69 792.99 255.73 782.00 255.73 C 779.07 255.71 776.17 255.98 773.28 256.29 C 773.22 270.11 773.47 283.93 773.30 297.76 C 801.13 297.70 828.96 297.84 856.78 297.60 C 856.80 305.96 856.50 314.34 857.18 322.69 C 851.78 322.66 846.39 322.91 841.00 323.16 C 815.33 323.23 789.67 323.13 764.00 323.17 C 757.90 323.30 751.82 322.55 745.72 322.76 C 745.82 296.17 745.67 269.58 745.82 242.99 C 746.08 238.67 746.36 234.33 745.89 230.01 C 745.53 207.94 746.10 185.85 745.51 163.78 Z" />
<path fill="#040303" opacity="1.00" d=" M 882.26 164.01 C 902.16 163.44 922.09 163.90 942.00 163.74 C 949.64 163.91 957.34 163.15 964.93 164.39 C 974.54 165.51 983.86 169.38 991.30 175.59 C 999.94 183.63 1004.62 195.27 1005.45 206.92 C 1006.09 217.45 1005.73 228.43 1001.50 238.26 C 998.44 244.87 994.02 251.06 987.88 255.12 C 981.53 259.60 974.04 262.13 966.45 263.48 C 971.26 268.49 974.73 274.57 978.92 280.09 C 989.71 294.37 1000.75 308.49 1010.93 323.23 C 1001.27 323.23 991.62 323.18 981.97 323.24 C 980.52 323.06 978.72 323.57 977.62 322.41 C 965.32 306.24 954.07 289.31 941.73 273.17 C 939.73 270.81 938.72 267.45 936.02 265.80 C 927.24 265.48 918.45 265.75 909.67 265.71 C 909.38 279.47 909.75 293.24 909.81 307.00 C 910.14 312.40 910.27 317.81 910.19 323.22 C 901.04 323.26 891.89 323.20 882.74 323.23 C 882.59 312.82 882.66 302.41 882.67 292.00 C 882.79 257.33 882.56 222.67 882.60 188.00 C 882.56 180.00 882.63 172.00 882.26 164.01 M 909.35 189.41 C 909.50 206.43 909.49 223.45 909.48 240.47 C 920.98 240.63 932.48 240.41 943.99 240.69 C 950.78 240.71 957.78 241.21 964.32 238.97 C 970.20 237.21 975.35 232.57 977.06 226.59 C 978.54 221.26 978.86 215.64 978.22 210.17 C 977.37 205.01 976.32 199.41 972.32 195.68 C 967.96 191.63 961.99 189.08 956.01 189.26 C 940.45 189.29 924.90 189.25 909.35 189.41 Z" />
<path fill="#040303" opacity="1.00" d=" M 1143.18 249.15 C 1148.87 249.29 1154.59 249.37 1160.26 248.69 C 1166.25 265.18 1170.79 282.17 1176.55 298.75 C 1177.70 301.11 1177.04 305.14 1180.00 306.08 C 1180.53 303.35 1181.15 300.64 1181.98 297.98 C 1186.77 281.67 1192.17 265.55 1197.17 249.31 C 1202.61 249.34 1208.03 248.71 1213.47 248.70 C 1212.39 251.52 1211.42 254.38 1210.59 257.29 C 1204.02 279.53 1196.75 301.56 1189.56 323.60 C 1182.36 323.48 1175.16 323.53 1167.97 323.59 C 1162.64 307.73 1157.55 291.80 1152.30 275.91 C 1149.30 266.98 1146.89 257.83 1143.18 249.15 Z" />
<path fill="#040303" opacity="1.00" d=" M 1222.62 248.76 C 1227.88 248.78 1233.15 248.68 1238.42 248.55 C 1238.59 260.65 1238.67 272.75 1238.37 284.84 C 1245.70 274.45 1254.33 265.06 1261.85 254.80 C 1263.28 252.95 1264.53 250.91 1266.33 249.39 C 1272.13 249.04 1277.96 249.31 1283.77 249.11 C 1278.09 256.62 1272.57 264.24 1266.91 271.77 C 1264.22 275.25 1262.00 279.10 1258.94 282.28 C 1260.26 285.65 1262.59 288.46 1264.47 291.53 C 1271.13 302.09 1277.50 312.84 1284.03 323.48 C 1278.15 323.30 1272.27 323.63 1266.41 323.43 C 1260.26 314.89 1254.90 305.75 1249.32 296.82 C 1248.31 295.57 1247.30 293.28 1245.36 294.23 C 1242.73 297.76 1241.09 301.90 1238.60 305.53 C 1237.25 307.07 1237.66 309.15 1237.85 311.00 C 1238.33 315.07 1238.21 319.18 1238.39 323.28 C 1233.06 323.28 1227.73 323.33 1222.41 323.61 C 1222.59 298.66 1222.43 273.71 1222.62 248.76 Z" />
<path fill="#040303" opacity="1.00" d=" M 1294.70 248.77 C 1307.12 248.88 1319.54 248.19 1331.97 248.57 C 1339.68 248.84 1348.08 251.75 1352.22 258.69 C 1355.31 265.33 1354.39 272.87 1354.50 279.97 C 1354.62 284.82 1352.51 289.68 1348.69 292.70 C 1343.70 296.66 1337.20 298.20 1330.97 298.53 C 1324.05 298.68 1317.14 298.58 1310.23 298.60 C 1310.25 306.93 1310.17 315.26 1310.42 323.58 C 1305.10 323.58 1299.79 323.57 1294.48 323.64 C 1294.56 298.69 1294.39 273.73 1294.70 248.77 M 1310.56 262.54 C 1310.54 270.07 1310.39 277.61 1310.66 285.14 C 1317.79 285.23 1324.96 285.41 1332.06 284.46 C 1334.55 284.17 1336.71 282.11 1337.10 279.61 C 1337.75 276.10 1337.67 272.49 1337.46 268.95 C 1337.31 266.05 1335.10 263.20 1332.08 263.03 C 1324.95 262.08 1317.72 262.73 1310.56 262.54 Z" />
</g>
</svg>
