<?xml version="1.0" encoding="UTF-8" ?>
<!DOCTYPE svg PUBLIC "-//W3C//DTD SVG 1.1//EN" "http://www.w3.org/Graphics/SVG/1.1/DTD/svg11.dtd">
<svg width="430pt" height="430pt" viewBox="0 0 430 430" version="1.1" xmlns="http://www.w3.org/2000/svg">
<g id="#ffffffff">
</g>
<g id="#020202ff">
<path fill="#020202" opacity="1.00" d=" M 184.56 44.78 C 217.59 42.13 251.50 48.51 280.65 64.50 C 310.97 80.75 336.21 106.14 352.42 136.48 C 369.65 167.83 376.25 204.52 372.67 240.01 C 367.70 293.68 336.19 343.94 290.54 372.45 C 262.02 390.78 227.87 399.93 194.02 398.67 C 147.03 397.83 101.24 375.95 70.00 341.02 C 68.00 338.71 67.86 335.01 69.56 332.50 C 70.87 330.84 72.61 329.59 74.19 328.21 C 85.34 318.68 96.38 309.03 107.55 299.53 C 109.62 297.78 113.51 297.16 115.04 299.91 C 132.73 320.71 157.78 335.30 184.83 339.51 C 209.09 343.38 234.66 339.77 256.56 328.49 C 268.94 322.22 280.19 313.72 289.56 303.49 C 292.90 299.83 292.38 293.54 288.67 290.32 C 281.75 284.21 275.02 277.86 267.86 272.03 C 265.09 269.78 261.09 269.68 257.88 270.94 C 253.59 272.64 250.94 276.66 247.26 279.25 C 234.83 289.19 218.95 294.76 203.01 294.44 C 186.75 294.40 170.69 288.22 158.40 277.62 C 144.82 266.10 135.56 249.51 133.20 231.84 C 131.01 216.56 133.75 200.60 141.04 186.98 C 150.13 169.85 166.17 156.33 184.94 151.11 C 208.47 144.33 235.22 151.18 252.64 168.37 C 254.92 170.41 256.70 173.50 259.98 174.00 C 262.47 174.65 265.04 173.40 266.88 171.79 C 274.69 164.94 282.61 158.22 290.46 151.43 C 293.39 148.82 293.51 143.91 291.02 140.97 C 273.56 121.61 249.61 108.02 223.85 103.68 C 201.57 99.94 178.12 102.38 157.43 111.62 C 142.30 118.33 128.63 128.29 117.51 140.54 C 115.46 143.00 111.89 143.06 108.96 142.86 C 105.88 142.72 103.72 140.34 101.51 138.50 C 92.07 130.73 83.22 122.27 74.02 114.23 C 70.99 111.85 69.30 107.76 70.02 103.95 C 70.57 100.45 73.68 98.31 75.91 95.85 C 104.39 66.47 143.77 48.00 184.56 44.78 Z" />
</g>
</svg>
