<svg xmlns="http://www.w3.org/2000/svg" xml:space="preserve" width="1080" height="1080"><g><path fill="#020202" d="M640.66 69.55c11.05-2.07 22.23-4.3 33.55-3.85 28.37.28 57.04 5.74 82.48 18.65 25.36 12.6 46.8 32 64.24 54.11 12.53 16.28 24.05 33.31 36.15 49.9 49.37 68.98 98.74 137.94 148.13 206.9 10.7 15.53 22.7 30.1 33.42 45.62 41.17 59.1 40.42 144.77-3.65 202.13-22.25 29.13-43.14 59.26-64.67 88.92-38.77 53.87-77.5 107.77-116.26 161.63-13.21 18.27-25.27 37.4-39.5 54.93-24.76 31.16-60.13 54.07-99.26 62.2-51.55 11.01-107.3-3.16-148.3-36.06-34.56-27.28-58.19-67.93-64.67-111.49-3.2-17.24-2.02-34.8-2.2-52.23 0-49.64.08-99.28.07-148.9H91.9c-15.07 0-30.2 1.18-45.23-.43-12.7-1.3-24.36-9.25-30.42-20.44-11.18-19.03-3.1-47.19 17.54-56.04 18.75-8.06 39.7-5.8 59.58-5.75 136.27.04 272.52.01 408.8.03 16.2.16 32.56.12 48.6 2.91 9.5 1.72 19.35 6.02 24.47 14.68 4.82 8.46 6.5 18.36 7.02 27.98 1.2 9.76.87 19.61 1.02 29.43 0 48.4.19 96.8.03 145.22-.11 25.95-2.4 53.28 8.5 77.62 16.65 38.38 61 61.87 102.12 54.63C713.4 928.61 731.4 918 744 902.84c13.12-16.11 24.87-33.29 36.92-50.2l147.95-205.89c13.39-18.93 28.84-36.39 41.13-56.1 8.52-13.7 15.43-28.78 17.39-44.95a76.54 76.54 0 0 0-9.75-46.77c-23.4-40.29-54.39-75.4-80.75-113.68-17.1-24.2-35.4-47.49-52.44-71.7-25.44-35.59-50.84-71.2-76.26-106.8-5.55-7.68-10.78-15.6-16.86-22.87-17.54-21.48-45.09-34.31-72.8-34-22.2-.44-44.37 7.29-61.74 21.06-13.08 10.48-24.16 24.22-28.96 40.5-4.79 15.73-4.62 32.36-4.5 48.63 31.7.01 63.4-.14 95.1.08 9.33.31 19.14.08 27.8 4.1 7.54 3.5 12.05 10.83 16.64 17.4 13.94 21.48 29.73 41.65 44.49 62.54C804 395.4 840.25 446.9 877.2 497.86c7.94 10.6 17.68 20.58 21.29 33.68 2.01 8.71 1.2 18.47-4 25.97-13.53 21.71-29.57 41.67-44.63 62.3-12.8 17.83-25.72 35.57-38.46 53.44-23.72 33.5-46.58 67.62-71.29 100.41-7.39 10.02-19.24 17.5-31.99 17.19-22.37.86-43.9-19.22-42.67-42 .36-13.03 8.49-23.8 15.53-34.1 35.77-48.54 70.1-98.11 105.2-147.13 6.49-9.67 14.06-18.6 20.28-28.45-47-66.05-94.74-131.58-140.8-198.28-27.45-.2-54.9 0-82.33-.1-.1 36.87.22 73.74-.17 110.6-.58 15.34-3.75 33.06-17.48 42.21-15.41 10.07-34.73 7.2-52.17 8-149.94-.65-299.89-.26-449.84-.23-13.05.5-27.77.3-37.98-9.12-17.81-14.73-18.82-45.31-1.43-60.76 11.7-10.69 28.6-12.01 43.7-11.8 9.47-.13 18.88 1.14 28.34.97 134.62 0 269.24-.04 403.86.07-.01-26.64.03-53.29-.01-79.93-56.59-.02-113.2.1-169.78.07-11.48.05-23.7-2.85-31.96-11.28-15.65-14.96-14.76-42.64.53-57.54 7.71-7.99 18.94-11.66 29.86-11.87 13.16-1.08 26.38-.94 39.55-.24 43.91.26 87.84 0 131.76.13.02-26.05.9-52.68 9.5-77.55 8.87-25.65 25.15-48.18 44.21-67.24 23.61-23.4 54.32-39.13 86.83-45.73Z" vector-effect="non-scaling-stroke"/><path fill="#020202" d="M294.6 756.38c7.38-10.94 20.81-16.94 33.87-16.32 28.34.38 56.67.34 85 .29.32 27.08-.22 54.17.02 81.26-23.67.25-47.34-.19-71 .07-12.72.25-26.6.76-37.6-6.74-19.08-12.03-23.11-40.59-10.3-58.56Z" vector-effect="non-scaling-stroke"/></g></svg>