<?xml version="1.0" encoding="utf-8"?>
<svg xmlns="http://www.w3.org/2000/svg" viewBox="0 0 500 500" xmlns:bx="https://boxy-svg.com" width="500px" height="500px"><defs><bx:export><bx:file format="svg"/></bx:export></defs><g id="#ffffffff" transform="matrix(1, 0, 0, 1, -544.795, -290.889)"/><g id="#000000ff" transform="matrix(1.32914, 0, 0, 1.32914, -416.159, -413.531)" style=""><path fill="#000000" opacity="1.00" d=" M 450.93 336.85 C 486.04 319.12 526.56 313.54 565.45 317.84 C 592.38 321.19 619.77 330.19 640.05 348.84 C 622.27 366.47 604.64 384.24 586.91 401.91 C 592.40 391.72 598.46 381.84 604.13 371.75 C 586.15 371.69 568.16 371.74 550.17 371.73 C 532.72 371.66 515.27 371.81 497.82 371.65 C 474.66 418.98 452.20 466.66 429.33 514.14 C 427.54 518.19 425.15 521.99 423.86 526.26 C 446.61 529.65 469.35 533.07 492.08 536.55 C 475.78 583.10 458.99 629.47 442.66 676.01 C 441.87 678.24 441.35 680.62 439.91 682.57 C 439.56 656.90 440.11 631.21 439.64 605.56 C 413.57 595.95 390.35 577.79 376.39 553.59 C 365.22 534.42 360.01 512.11 360.11 490.00 C 359.91 457.04 368.33 423.76 385.94 395.75 C 401.59 370.59 424.46 350.11 450.93 336.85 Z"/><path fill="#000000" opacity="1.00" d=" M 498.26 616.81 C 526.98 583.38 556.10 550.28 584.97 516.98 C 600.60 532.43 616.34 547.77 632.01 563.19 C 613.59 585.97 587.89 602.71 559.56 610.24 C 539.65 615.75 518.85 617.25 498.26 616.81 Z"/></g><g id="#e0e0e0ff" transform="matrix(1.32914, 0, 0, 1.32914, -416.159, -413.531)" style=""><path fill="#e0e0e0" opacity="1.00" d=" M 429.33 514.14 C 452.20 466.66 474.66 418.98 497.82 371.65 C 515.27 371.81 532.72 371.66 550.17 371.73 C 549.91 375.50 547.33 378.43 545.58 381.60 C 522.49 421.67 499.29 461.68 476.24 501.77 C 497.07 505.15 518.06 507.73 539.00 510.39 C 538.84 511.63 538.62 512.89 537.94 513.97 C 507.22 566.95 476.68 620.04 446.06 673.07 C 445.29 674.43 444.30 675.72 442.66 676.01 C 458.99 629.47 475.78 583.10 492.08 536.55 C 469.35 533.07 446.61 529.65 423.86 526.26 C 425.15 521.99 427.54 518.19 429.33 514.14 Z"/></g></svg>