<svg width="394" height="396" xmlns="http://www.w3.org/2000/svg" version="1.1">

 <g>
  <title>Layer 1</title>
  <g id="#ffffffff"/>
  <g stroke="null" id="#090915ff">
   <path stroke="null" id="svg_1" data-index="1" d="m143.53824,26.7633c26.58672,-17.29204 59.1181,-23.63082 90.46712,-21.69306c43.35327,1.57648 85.21218,18.9999 118.43326,46.57193c-17.01288,21.1183 -34.04217,42.20376 -51.17,63.2071c-19.19696,-15.35428 -42.28586,-26.63599 -67.11547,-28.0811c-17.39058,-1.26447 -36.93239,-0.41054 -50.7923,11.49519c-11.10107,9.22899 -11.95499,28.14679 -0.91961,37.78632c-29.31273,0.06569 -58.64187,0.13137 -87.9546,-0.03284c-2.00345,-16.60233 -1.83923,-33.74658 3.16939,-49.83984c7.30765,-24.58328 24.33695,-45.718 45.88222,-59.41369z" fill="#090915"/>
   <path stroke="null" id="svg_2" data-index="2" d="m29.57168,379.25498c73.70057,-73.61846 147.26976,-147.38471 221.03601,-220.93748c5.53411,1.18236 11.15033,2.20051 16.4217,4.35175c-22.54699,22.43204 -44.97902,44.97902 -67.49317,67.4439c-4.41744,-0.65687 -10.16503,-4.97577 -13.56432,-0.1478c-13.66285,14.04055 -27.96615,27.44065 -41.34983,41.74395c2.51252,1.95418 4.92651,4.03974 7.22555,6.25667c-19.32834,19.03274 -38.45961,38.27897 -57.59088,57.5252c-2.57821,-2.03629 -5.12357,-4.07258 -7.7182,-6.07603c-20.3629,20.42859 -40.82433,40.77507 -61.17081,61.22008c-0.93604,-0.72255 -2.79169,-2.16766 -3.72772,-2.89022c2.38115,-3.07086 5.13999,-5.81328 7.93168,-8.49002z" fill="#090915"/>
   <path stroke="null" id="svg_3" data-index="3" d="m204.87327,231.55826c22.66194,-22.61267 45.02829,-45.55378 68.06793,-67.77234c4.30248,1.41227 8.62139,2.80811 12.84177,4.48312c-21.70948,22.59625 -44.17436,44.48637 -66.34365,66.63924c-4.8444,-1.1331 -9.72164,-2.21693 -14.56604,-3.35003z" fill="#090915"/>
   <path stroke="null" id="svg_4" data-index="4" d="m225.67956,236.27129c21.00335,-22.77689 43.69813,-44.2072 65.60467,-66.2287c4.00689,1.72428 8.03021,3.43213 12.0371,5.2221c-20.72418,21.97223 -42.40082,43.2219 -64.06103,64.27451c-4.48312,-1.26447 -9.04835,-2.26619 -13.58074,-3.26792z" fill="#090915"/>
   <path stroke="null" id="svg_5" data-index="5" d="m245.40202,241.06642c20.37932,-21.59453 41.95743,-42.0888 62.76372,-63.28921c4.02332,1.83923 7.86599,4.03974 11.46234,6.61794c-20.23153,20.28079 -40.47948,40.54516 -60.74385,60.77669c-4.48312,-1.41227 -8.98267,-2.75884 -13.48221,-4.10542z" fill="#090915"/>
   <path stroke="null" id="svg_6" data-index="6" d="m263.94211,247.01107c19.90309,-20.18226 39.90472,-40.266 60.11983,-60.13625c3.41571,2.54536 6.79858,5.12357 10.14861,7.76746c-19.55824,19.36118 -38.65667,39.24785 -58.59261,58.21491c-3.77699,-2.18409 -7.70177,-4.07258 -11.67583,-5.84612z" fill="#090915"/>
   <path stroke="null" id="svg_7" data-index="7" d="m280.10106,255.4354c19.16412,-19.21338 38.39392,-38.36108 57.55804,-57.60731c3.18581,2.90664 6.19098,6.01034 8.83487,9.42605c-19.57466,19.50897 -39.1329,39.03437 -58.59261,58.64187c-2.24977,-3.74415 -4.79513,-7.29123 -7.80031,-10.46062z" fill="#090915"/>
   <path stroke="null" id="svg_8" data-index="8" d="m289.24794,271.11812c20.01805,-20.133 40.13462,-40.15104 60.18551,-60.23478c2.66031,3.28434 4.97577,6.79858 7.32408,10.31282c-4.22038,5.32063 -9.40963,9.75449 -14.08981,14.64815c-49.83984,49.62636 -99.30199,99.66327 -149.35532,149.05973c-4.6966,-1.21521 -9.6888,-1.64217 -14.04055,-3.92479c25.30583,-24.87887 49.9548,-50.49671 75.52338,-75.07999c11.62656,-3.3336 24.68181,-7.91526 30.36371,-19.6075c2.92306,-4.59807 1.49437,-10.6741 4.089,-15.17365z" fill="#090915"/>
   <path stroke="null" id="svg_9" data-index="9" d="m199.42127,385.87293c53.0585,-53.41977 106.3469,-106.62607 159.68456,-159.73383c11.69225,24.43548 13.13736,53.22271 5.89539,79.16899c-8.5557,30.29803 -31.72671,55.16047 -59.8735,68.577c-32.59706,15.99473 -70.35054,17.66974 -105.70645,11.98784z" fill="#090915"/>
   <path stroke="null" id="svg_10" data-index="10" d="m97.80382,338.80835c18.9999,-19.65677 38.68951,-38.67309 57.83721,-58.18207c3.67846,2.36472 7.29123,4.82798 10.83832,7.38976c-19.59108,19.44329 -38.95226,39.14932 -58.65829,58.47766c-3.3336,-2.57821 -6.66721,-5.13999 -10.01723,-7.68535z" fill="#090915"/>
   <path stroke="null" id="svg_11" data-index="11" d="m112.00859,349.08833c19.42687,-19.50897 39.11648,-38.77162 58.31344,-58.5105c4.18753,1.67501 8.16158,3.80983 12.10279,5.99392c-19.68961,20.24795 -39.85545,40.03609 -59.82423,60.0213c-3.67846,-2.29904 -7.3405,-4.63092 -10.59199,-7.50471z" fill="#090915"/>
   <path stroke="null" id="svg_12" data-index="12" d="m126.90307,358.99061c20.37932,-20.03447 40.23315,-40.61085 60.80954,-60.43184c4.25322,1.62575 8.58855,3.00517 12.92387,4.40101c-20.24795,21.31536 -41.4812,41.67826 -62.15612,62.5995c-4.00689,-1.92134 -7.89884,-4.05616 -11.57729,-6.56868z" fill="#090915"/>
   <path stroke="null" id="svg_13" data-index="13" d="m143.22623,368.10465c20.41217,-21.75875 42.15449,-42.28586 63.01004,-63.61765c5.30421,0.73898 10.62484,1.52722 15.92904,2.31546c-22.43204,22.12002 -44.43711,44.68343 -66.98409,66.70493c-3.99047,-1.78996 -7.99737,-3.54709 -11.95499,-5.40274z" fill="#090915"/>
   <path stroke="null" id="svg_14" data-index="14" d="m224.25087,311.20348c5.36989,-7.11059 15.12438,-2.57821 22.66194,-4.38459c-24.53401,24.35337 -48.75601,49.0516 -73.47066,73.22434c-4.41744,-1.5108 -8.83487,-2.98875 -13.18662,-4.68018c21.21683,-21.496 42.74567,-42.69641 63.99535,-64.15956z" fill="#090915"/>
  </g>
 </g>
</svg>