<svg xmlns="http://www.w3.org/2000/svg" width="528" height="528" viewBox="0 0 396 396"><g fill="#231f20"><path d="M351.72 48.67c4.85-2.76 10.73-3.02 16.1-1.95 10.74 3.52 17.01 15.91 15.14 26.75-1.61 9.67-11.19 17.13-20.97 16.29-7.31.27-13.86-4.33-17.65-10.31-1.81-3.26-8.24.41-5.15 3.38 11.57 12.99 14.7 32.36 8.67 48.54-5.31 14.77-17.43 26.3-31.22 33.3-11.98 5.75-25.23 9.77-38.64 9.08-39.85-.02-79.71.01-119.57-.02-.04-4.73-.08-9.46-.04-14.2 14.5-.3 29.06.59 43.53-.46-3.77-2.33-8.05-3.64-11.89-5.84-6.63-3.69-12.13-9.58-14.88-16.7-3.16-9.15-3.28-18.99-2.63-28.55 1.75-15.39 10.88-29.26 23.21-38.36 20.04-14.75 45.71-20.23 70.26-19.29 22.61.47 46.15 7.04 63.09 22.64 5.88-9.39 12.62-18.97 22.64-24.3M252.13 62.7c-9.33 2.57-16.22 11.6-16.41 21.25-.05 18.68 0 37.37-.02 56.06.03 8.42 4.79 16.81 12.49 20.49 5.13 2.87 11.17 2.17 16.81 2.2 11.45.16 21.46-10.35 21.55-21.64.04-18.69-.01-37.38.03-56.08.49-10.38-7.41-20.49-17.6-22.51-5.59-.44-11.3-.64-16.85.23ZM50.52 57.1c32.7-1.61 65.44-3.49 97.95-7.69-.17 46.65-.14 93.31.31 139.96-21.12-.03-42.24-.03-63.36 0-.42-10.78.32-21.58-.65-32.34-.1-28.46-.11-56.93-.24-85.4-11.39.01-22.78 0-34.17.01.06-4.85.12-9.69.16-14.54Z"/><path d="M48.94 180.79c6.03-8.24 15.09-13.81 24.72-16.88.66 3.81.75 7.69.7 11.55-4.7 1.7-9.27 5.21-9.86 10.51-1.17 6.34 4.01 13.2 10.45 13.58 81.7-.01 163.4-.04 245.1.02 13.54 2.55 27.53 7.02 38 16.38 7.88 7.05 11.98 17.59 12.52 28 .29 5.68-.21 11.36.27 17.03.95 18.57-6.05 37.44-19.25 50.6-10.19 10.83-23.38 18.38-37.07 23.88-22.37 8.78-46.6 12.13-70.53 11.89-18.78-.86-37.82-3.4-55.22-10.87-10.08-4.42-19.97-10.53-26.11-19.9-6.59-9.99-6.02-22.89-2.97-34 3.59-11.5 13.94-18.84 24.16-24.11-33.63-.5-67.28.03-100.91-.27-12.57-1.4-24.95-7.2-33.24-16.9-14.32-16.69-14.03-43.3-.76-60.51m152.08 78.69c-4.32 5.25-7.18 11.68-7.76 18.48-2.1 13.52-.19 28.89 9.67 39.13 11.8 12.43 29.67 15.79 46.02 17.26 26.83 1.4 55.93-.87 78.35-17.2 9.67-7.71 18.92-17.5 21.61-29.97 1.35-5.39 2.29-11.23.23-16.58-2.3-7.1-10.07-10.78-17.07-11.13-43.68.01-87.37 0-131.05.01Z"/><path d="M83.43 268.48c19.18.05 38.36-.06 57.53.05-6.52 24.16-18.76 48.15-39.81 62.7-14.35 9.92-31.84 14.72-49.19 14.98-10.17-.46-20.9-2.44-28.86-9.26-10.43-8.85-16.49-24.38-10.82-37.48 5.28-12.63 21.15-19.39 33.88-14.25 6.88 2.87 13.69 7.75 16.2 15.07 1.95 5.25 1.26 11.05-.39 16.28-2.66 6.93 5.89 14.08 12.44 11.39 3.56-1.14 6.32-4.34 6.96-8.02.77-17.14 1.36-34.31 2.06-51.46Z"/></g></svg>