<svg xmlns="http://www.w3.org/2000/svg" xml:space="preserve" width="1080" height="1080"><g><path fill="#121212" d="M542.68 236.33c156-71.3 311.1-145.03 466.65-217.45.98 126.75.46 253.5.26 380.25-48.52 42.71-104.22 79.09-154.96 119.97-3.53-83.98-.2-168.35-1.63-252.53-104.81 44.14-206.5 96.65-310.71 142.62-105.86-45.84-209.24-97.95-315.16-143.6-.85 84.83.53 169.66-.72 254.49C173 483.7 123.04 442.3 70.73 404.29c-1.3-127.01-.26-254.03-.52-381.04 16.85.2 30.5 11.23 45.58 17.18 142.62 64.51 283.74 133.15 426.89 195.9Z" vector-effect="non-scaling-stroke"/><path fill="#121212" d="M70.8 514.66C226.48 630.44 380 749.36 535.95 864.88c21.88-9.34 39.64-25.66 58.64-39.5 138.64-103.25 274.6-210.67 414.94-311.3.2 65.17 1.17 130.47-.52 195.58-157.58 116.89-314.83 234.24-472.21 351.4-156.47-115.4-310-235.03-465.61-351.67a4721.4 4721.4 0 0 1-.4-194.73Z" vector-effect="non-scaling-stroke"/></g></svg>