<?xml version="1.0" encoding="UTF-8" ?>
<!DOCTYPE svg PUBLIC "-//W3C//DTD SVG 1.1//EN" "http://www.w3.org/Graphics/SVG/1.1/DTD/svg11.dtd">
<svg width="309pt" height="309pt" viewBox="0 0 309 309" version="1.1" xmlns="http://www.w3.org/2000/svg">
<g id="#ffffffff">
</g>
<g id="#211f20ff">
<path fill="#211f20" opacity="1.00" d=" M 233.98 7.88 C 247.38 3.45 262.52 5.31 274.68 12.36 C 290.25 21.18 300.80 38.92 299.84 56.95 C 299.75 88.69 299.52 120.42 299.33 152.16 C 273.07 134.25 246.86 116.26 220.64 98.30 C 202.66 87.09 194.28 63.36 200.05 43.14 C 204.35 26.61 217.64 12.82 233.98 7.88 Z" />
<path fill="#211f20" opacity="1.00" d=" M 10.17 5.46 C 106.67 68.39 203.33 131.08 299.88 193.94 C 299.82 230.79 299.89 267.64 299.84 304.48 C 203.40 241.74 106.93 179.02 10.48 116.29 C 9.77 115.05 10.30 113.44 10.13 112.06 C 10.17 76.53 10.10 40.99 10.17 5.46 Z" />
<path fill="#211f20" opacity="1.00" d=" M 10.68 157.78 C 35.88 175.13 61.17 192.35 86.40 209.66 C 90.08 212.26 94.07 214.49 97.12 217.87 C 106.31 227.09 111.63 239.98 111.73 252.98 C 111.89 266.32 106.60 279.67 97.20 289.16 C 84.58 302.22 64.64 307.79 47.16 302.60 C 27.15 297.36 11.48 278.71 10.14 258.02 C 10.24 224.61 10.46 191.19 10.68 157.78 Z" />
</g>
</svg>
